<svg xmlns="http://www.w3.org/2000/svg" viewBox="0 0 533.5 544.3">
  <path fill="#4285f4" d="M533.5 278.4c0-18.5-1.5-37.1-4.7-55.3H272v104.7h147.1c-6.1 33.8-25.1 63.7-53 82.7v68h85.7c50.3-46.3 81.7-114.7 81.7-200.1z"/>
  <path fill="#34a853" d="M272 544.3c73.5 0 135.5-24.1 180.7-65.8l-85.7-68c-23.8 16.2-54.4 25.4-95 25.4-73 0-134.8-49.2-156.9-115.5H26.8v72.1C73.1 484.6 167.4 544.3 272 544.3z"/>
  <path fill="#fbbc04" d="M115.1 320.4c-11.8-34.9-11.8-72.4 0-107.3V141H26.8c-38.8 77.2-38.8 168.9 0 246.1l88.3-66.7z"/>
  <path fill="#ea4335" d="M272 107.7c42.8-.7 84.1 15.4 115.7 45l86.2-86.2C424.8 20.5 350.6-2.9 272 0 167.4 0 73.1 59.7 26.8 141l88.3 72.1C137.2 156.9 199 107.7 272 107.7z"/>
</svg>
